<svg width="178" height="21" viewBox="0 0 178 21" fill="none" xmlns="http://www.w3.org/2000/svg">
<path d="M2.268 20.216C1.836 20.216 1.485 20.117 1.215 19.919C0.963 19.721 0.81 19.46 0.756 19.136C0.702 18.794 0.765 18.416 0.945 18.002L8.073 2.207C8.307 1.685 8.586 1.316 8.91 1.1C9.252 0.865999 9.639 0.748998 10.071 0.748998C10.485 0.748998 10.854 0.865999 11.178 1.1C11.52 1.316 11.808 1.685 12.042 2.207L19.197 18.002C19.395 18.416 19.467 18.794 19.413 19.136C19.359 19.478 19.206 19.748 18.954 19.946C18.702 20.126 18.369 20.216 17.955 20.216C17.451 20.216 17.055 20.099 16.767 19.865C16.497 19.613 16.254 19.235 16.038 18.731L14.283 14.654L15.741 15.599H4.347L5.805 14.654L4.077 18.731C3.843 19.253 3.6 19.631 3.348 19.865C3.096 20.099 2.736 20.216 2.268 20.216ZM10.017 4.718L6.237 13.709L5.535 12.845H14.553L13.878 13.709L10.071 4.718H10.017ZM26.3558 20.27C24.8618 20.27 23.7368 19.847 22.9808 19.001C22.2248 18.137 21.8468 16.877 21.8468 15.221V2.45C21.8468 1.892 21.9908 1.469 22.2788 1.181C22.5668 0.892999 22.9808 0.748998 23.5208 0.748998C24.0608 0.748998 24.4748 0.892999 24.7628 1.181C25.0688 1.469 25.2218 1.892 25.2218 2.45V15.059C25.2218 15.887 25.3928 16.499 25.7348 16.895C26.0948 17.291 26.5988 17.489 27.2468 17.489C27.3908 17.489 27.5258 17.489 27.6518 17.489C27.7778 17.471 27.9038 17.453 28.0298 17.435C28.2818 17.399 28.4528 17.471 28.5428 17.651C28.6328 17.813 28.6778 18.155 28.6778 18.677C28.6778 19.127 28.5878 19.478 28.4078 19.73C28.2278 19.982 27.9308 20.135 27.5168 20.189C27.3368 20.207 27.1478 20.225 26.9498 20.243C26.7518 20.261 26.5538 20.27 26.3558 20.27ZM36.844 20.27C35.35 20.27 34.063 19.991 32.983 19.433C31.903 18.875 31.066 18.083 30.472 17.057C29.896 16.031 29.608 14.816 29.608 13.412C29.608 12.044 29.887 10.847 30.445 9.821C31.021 8.795 31.804 7.994 32.794 7.418C33.802 6.824 34.945 6.527 36.223 6.527C37.159 6.527 37.996 6.68 38.734 6.986C39.49 7.292 40.129 7.733 40.651 8.309C41.191 8.885 41.596 9.587 41.866 10.415C42.154 11.225 42.298 12.143 42.298 13.169C42.298 13.493 42.181 13.745 41.947 13.925C41.731 14.087 41.416 14.168 41.002 14.168H32.335V12.224H39.922L39.49 12.629C39.49 11.801 39.364 11.108 39.112 10.55C38.878 9.992 38.527 9.569 38.059 9.281C37.609 8.975 37.042 8.822 36.358 8.822C35.602 8.822 34.954 9.002 34.414 9.362C33.892 9.704 33.487 10.199 33.199 10.847C32.929 11.477 32.794 12.233 32.794 13.115V13.304C32.794 14.78 33.136 15.887 33.82 16.625C34.522 17.345 35.548 17.705 36.898 17.705C37.366 17.705 37.888 17.651 38.464 17.543C39.058 17.417 39.616 17.21 40.138 16.922C40.516 16.706 40.849 16.616 41.137 16.652C41.425 16.67 41.65 16.769 41.812 16.949C41.992 17.129 42.1 17.354 42.136 17.624C42.172 17.876 42.118 18.137 41.974 18.407C41.848 18.677 41.623 18.911 41.299 19.109C40.669 19.505 39.94 19.802 39.112 20C38.302 20.18 37.546 20.27 36.844 20.27ZM45.8097 20.135C45.4137 20.135 45.0807 20.027 44.8107 19.811C44.5587 19.577 44.4237 19.28 44.4057 18.92C44.4057 18.56 44.5587 18.182 44.8647 17.786L49.2387 12.386V13.979L45.1347 8.93C44.8107 8.534 44.6577 8.156 44.6757 7.796C44.6937 7.436 44.8287 7.148 45.0807 6.932C45.3507 6.698 45.6837 6.581 46.0797 6.581C46.4937 6.581 46.8357 6.653 47.1057 6.797C47.3937 6.941 47.6547 7.166 47.8887 7.472L51.1287 11.63H49.9407L53.2077 7.472C53.4597 7.166 53.7207 6.941 53.9907 6.797C54.2607 6.653 54.5937 6.581 54.9897 6.581C55.4037 6.581 55.7367 6.698 55.9887 6.932C56.2407 7.166 56.3667 7.463 56.3667 7.823C56.3847 8.183 56.2317 8.561 55.9077 8.957L51.8307 13.952V12.44L56.2047 17.786C56.5287 18.164 56.6817 18.533 56.6637 18.893C56.6457 19.253 56.5017 19.55 56.2317 19.784C55.9797 20.018 55.6467 20.135 55.2327 20.135C54.8367 20.135 54.5037 20.063 54.2337 19.919C53.9637 19.775 53.7027 19.55 53.4507 19.244L49.9407 14.816H51.0747L47.5917 19.244C47.3577 19.532 47.1057 19.757 46.8357 19.919C46.5657 20.063 46.2237 20.135 45.8097 20.135ZM132.405 20.216C131.919 20.216 131.514 20.108 131.19 19.892C130.884 19.658 130.632 19.316 130.434 18.866L123.387 3.044C123.189 2.594 123.135 2.198 123.225 1.856C123.315 1.514 123.504 1.244 123.792 1.046C124.08 0.847999 124.422 0.748998 124.818 0.748998C125.34 0.748998 125.727 0.865999 125.979 1.1C126.249 1.316 126.474 1.649 126.654 2.099L133.053 16.922H131.892L138.264 2.072C138.462 1.64 138.696 1.316 138.966 1.1C139.236 0.865999 139.614 0.748998 140.1 0.748998C140.496 0.748998 140.82 0.847999 141.072 1.046C141.342 1.244 141.513 1.514 141.585 1.856C141.657 2.198 141.594 2.594 141.396 3.044L134.349 18.866C134.151 19.316 133.899 19.658 133.593 19.892C133.305 20.108 132.909 20.216 132.405 20.216Z" fill="#FFC301"/>
<path d="M64.14 20.27C62.646 20.27 61.521 19.847 60.765 19.001C60.009 18.137 59.631 16.877 59.631 15.221V2.45C59.631 1.892 59.775 1.469 60.063 1.181C60.351 0.892999 60.765 0.748998 61.305 0.748998C61.845 0.748998 62.259 0.892999 62.547 1.181C62.853 1.469 63.006 1.892 63.006 2.45V15.059C63.006 15.887 63.177 16.499 63.519 16.895C63.879 17.291 64.383 17.489 65.031 17.489C65.175 17.489 65.31 17.489 65.436 17.489C65.562 17.471 65.688 17.453 65.814 17.435C66.066 17.399 66.237 17.471 66.327 17.651C66.417 17.813 66.462 18.155 66.462 18.677C66.462 19.127 66.372 19.478 66.192 19.73C66.012 19.982 65.715 20.135 65.301 20.189C65.121 20.207 64.932 20.225 64.734 20.243C64.536 20.261 64.338 20.27 64.14 20.27ZM145.821 20.216C145.263 20.216 144.831 20.063 144.525 19.757C144.237 19.433 144.093 18.992 144.093 18.434V2.72C144.093 2.144 144.246 1.712 144.552 1.424C144.858 1.118 145.29 0.964999 145.848 0.964999H152.355C154.443 0.964999 156.054 1.487 157.188 2.531C158.322 3.575 158.889 5.033 158.889 6.905C158.889 8.777 158.322 10.244 157.188 11.306C156.054 12.35 154.443 12.872 152.355 12.872H147.549V18.434C147.549 18.992 147.405 19.433 147.117 19.757C146.829 20.063 146.397 20.216 145.821 20.216ZM147.549 10.145H151.815C153.039 10.145 153.966 9.875 154.596 9.335C155.226 8.777 155.541 7.967 155.541 6.905C155.541 5.843 155.226 5.042 154.596 4.502C153.966 3.962 153.039 3.692 151.815 3.692H147.549V10.145Z" fill="#FF1441"/>
<path d="M70.197 20.216C69.675 20.216 69.27 20.072 68.982 19.784C68.712 19.496 68.577 19.082 68.577 18.542V2.477C68.577 1.919 68.712 1.496 68.982 1.208C69.27 0.901999 69.639 0.748998 70.089 0.748998C70.503 0.748998 70.809 0.829998 71.007 0.991998C71.223 1.136 71.475 1.388 71.763 1.748L82.104 15.167H81.402V2.396C81.402 1.874 81.537 1.469 81.807 1.181C82.095 0.892999 82.5 0.748998 83.022 0.748998C83.544 0.748998 83.94 0.892999 84.21 1.181C84.48 1.469 84.615 1.874 84.615 2.396V18.596C84.615 19.1 84.489 19.496 84.237 19.784C83.985 20.072 83.643 20.216 83.211 20.216C82.797 20.216 82.464 20.135 82.212 19.973C81.978 19.811 81.717 19.55 81.429 19.19L71.115 5.771H71.79V18.542C71.79 19.082 71.655 19.496 71.385 19.784C71.115 20.072 70.719 20.216 70.197 20.216ZM94.4713 20.27C93.1033 20.27 91.9153 19.991 90.9073 19.433C89.8993 18.875 89.1163 18.083 88.5583 17.057C88.0003 16.013 87.7213 14.789 87.7213 13.385C87.7213 12.323 87.8743 11.378 88.1803 10.55C88.5043 9.704 88.9633 8.984 89.5573 8.39C90.1513 7.778 90.8623 7.319 91.6903 7.013C92.5183 6.689 93.4453 6.527 94.4713 6.527C95.8393 6.527 97.0273 6.806 98.0353 7.364C99.0433 7.922 99.8263 8.714 100.384 9.74C100.942 10.766 101.221 11.981 101.221 13.385C101.221 14.447 101.059 15.401 100.735 16.247C100.429 17.093 99.9793 17.822 99.3853 18.434C98.7913 19.028 98.0803 19.487 97.2523 19.811C96.4243 20.117 95.4973 20.27 94.4713 20.27ZM94.4713 17.705C95.1373 17.705 95.7223 17.543 96.2263 17.219C96.7303 16.895 97.1173 16.418 97.3873 15.788C97.6753 15.14 97.8193 14.339 97.8193 13.385C97.8193 11.945 97.5133 10.874 96.9013 10.172C96.2893 9.452 95.4793 9.092 94.4713 9.092C93.8053 9.092 93.2203 9.254 92.7163 9.578C92.2123 9.884 91.8163 10.361 91.5283 11.009C91.2583 11.639 91.1233 12.431 91.1233 13.385C91.1233 14.807 91.4293 15.887 92.0413 16.625C92.6533 17.345 93.4633 17.705 94.4713 17.705ZM108.84 20.27C108.066 20.27 107.247 20.189 106.383 20.027C105.519 19.865 104.745 19.586 104.061 19.19C103.773 19.01 103.566 18.803 103.44 18.569C103.332 18.317 103.287 18.074 103.305 17.84C103.341 17.588 103.431 17.372 103.575 17.192C103.737 17.012 103.935 16.895 104.169 16.841C104.421 16.787 104.691 16.832 104.979 16.976C105.699 17.318 106.374 17.561 107.004 17.705C107.634 17.831 108.255 17.894 108.867 17.894C109.731 17.894 110.37 17.75 110.784 17.462C111.216 17.156 111.432 16.76 111.432 16.274C111.432 15.86 111.288 15.545 111 15.329C110.73 15.095 110.316 14.924 109.758 14.816L107.058 14.303C105.942 14.087 105.087 13.682 104.493 13.088C103.917 12.476 103.629 11.693 103.629 10.739C103.629 9.875 103.863 9.128 104.331 8.498C104.817 7.868 105.483 7.382 106.329 7.04C107.175 6.698 108.147 6.527 109.245 6.527C110.037 6.527 110.775 6.617 111.459 6.797C112.161 6.959 112.836 7.22 113.484 7.58C113.754 7.724 113.934 7.913 114.024 8.147C114.132 8.381 114.159 8.624 114.105 8.876C114.051 9.11 113.943 9.326 113.781 9.524C113.619 9.704 113.412 9.821 113.16 9.875C112.926 9.911 112.656 9.857 112.35 9.713C111.792 9.425 111.252 9.218 110.73 9.092C110.226 8.966 109.74 8.903 109.272 8.903C108.39 8.903 107.733 9.056 107.301 9.362C106.887 9.668 106.68 10.073 106.68 10.577C106.68 10.955 106.806 11.27 107.058 11.522C107.31 11.774 107.697 11.945 108.219 12.035L110.919 12.548C112.089 12.764 112.971 13.16 113.565 13.736C114.177 14.312 114.483 15.086 114.483 16.058C114.483 17.372 113.97 18.407 112.944 19.163C111.918 19.901 110.55 20.27 108.84 20.27ZM163.326 20.216C162.804 20.216 162.399 20.072 162.111 19.784C161.841 19.496 161.706 19.082 161.706 18.542V2.477C161.706 1.919 161.841 1.496 162.111 1.208C162.399 0.901999 162.768 0.748998 163.218 0.748998C163.632 0.748998 163.938 0.829998 164.136 0.991998C164.352 1.136 164.604 1.388 164.892 1.748L175.233 15.167H174.531V2.396C174.531 1.874 174.666 1.469 174.936 1.181C175.224 0.892999 175.629 0.748998 176.151 0.748998C176.673 0.748998 177.069 0.892999 177.339 1.181C177.609 1.469 177.744 1.874 177.744 2.396V18.596C177.744 19.1 177.618 19.496 177.366 19.784C177.114 20.072 176.772 20.216 176.34 20.216C175.926 20.216 175.593 20.135 175.341 19.973C175.107 19.811 174.846 19.55 174.558 19.19L164.244 5.771H164.919V18.542C164.919 19.082 164.784 19.496 164.514 19.784C164.244 20.072 163.848 20.216 163.326 20.216Z" fill="#31DFF6"/>
</svg>
